<?xml version="1.0" encoding="utf-8"?>
<!-- Generator: Adobe Illustrator 26.0.3, SVG Export Plug-In . SVG Version: 6.00 Build 0)  -->
<svg version="1.0" id="Layer_1" xmlns="http://www.w3.org/2000/svg" xmlns:xlink="http://www.w3.org/1999/xlink" x="0px" y="0px"
	 viewBox="0 0 229 167" style="enable-background:new 0 0 229 167;" xml:space="preserve">
<style type="text/css">
	.st0{fill:#FF4713;}
	.st1{fill:none;}
</style>
<g id="Layer_2">
	<g id="Layer_1-2">
		<path class="st0" d="M157.6,69.6h-11.7l-2.7,4.1c-0.2,0.3-0.4,0.7-0.6,1s-0.6,1.2-0.6,1.2h-0.2c0,0,0-0.5-0.1-1
			c0-0.3-0.1-0.6-0.2-0.9l-1.6-4.4h-11.7l6.9,13l-11.5,13.9l-7.3-13.8l11-13h-11.7c0,0-2.7,4.1-3.1,4.8c-0.3,0.4-0.5,0.9-0.7,1.4
			h-0.2c0,0,0-0.6-0.1-0.9s-0.3-1.1-0.3-1.1l-1.6-4.2H97.7l6.9,13.1L93.4,96.1l-5.6-26.5H76.3L63.2,95.3l-0.3-25.7H52.3l-6.2,14.6
			h-0.2l-1.6-14.6H33.5l-9,27.8h10l3.9-15.2h0.3v1.6c0,0.6,0.1,2,0.1,2l1.9,11.8h6.1c0,0,6.3-13,6.6-13.6l0.6-1.6h0.2
			c0,0-0.8,13.2-0.9,14.2c0,0.3,0,0.7,0,1h19.8l1.4-3.4h7.8l0.4,3.4h21.4l4.6-6.4c0.2-0.4,0.4-0.8,0.6-1.2h0.3c0,0.2,0,0.4,0,0.6
			c0,0.3,0.1,0.5,0.2,0.8l2.4,6.2h22.3l4.4-6.2c0.2-0.3,0.8-1.4,0.8-1.4h0.3c0,0.2,0,0.3,0,0.5c0,0.3,0.1,0.5,0.2,0.8l2.4,6.3h11.8
			l-7.8-14.9L157.6,69.6z M77.3,87.4l3.2-8.5H81v1.3c0,0.7,0.1,2.1,0.1,2.1l0.4,5.1H77.3z M159.5,69.6l-4.4,27.9h10.4l4.4-27.9
			L159.5,69.6z M182.1,76.7c1.4-0.2,2.7,0,4,0.6c0.9,0.4,1.7,0.9,2.5,1.4l4-7.1c0,0-3.2-2.5-9-2.4c-4.5,0.1-8.8,2.1-11.7,5.6
			c-1.3,1.9-2.6,4.7-1.9,7.4s3.1,3.9,5.1,4.4s3.1,0.5,4,0.8s1.3,0.7,1.1,1.4s-0.9,1.6-3,1.6c-2-0.1-3.9-0.9-5.4-2.1l-1-0.8l-4.4,7.8
			c3.4,1.8,7.2,2.7,11,2.6c6.2-0.2,10-3.1,11.5-5.2c1.9-2.4,2.5-5.5,1.7-8.5c-1-3-5.4-4.2-6.3-4.3c-1-0.2-2.1-0.4-3.1-0.8
			c-0.4-0.1-0.7-0.5-0.7-1C180.5,77.5,181,76.9,182.1,76.7L182.1,76.7z M200.7,71.7c0,0-3.9-0.2-5.1,3.5c-0.5,1.5,0.7,3.7,3.6,3.7
			c1.8,0,4.8-1.1,5.2-3.6C204.9,72.6,202.2,71.7,200.7,71.7L200.7,71.7z M203.3,75.5c-0.5,1.9-2.9,2.5-3.8,2.5
			c-1.4,0-3.4-0.9-2.9-2.9c0.8-2.8,3.9-2.7,3.9-2.7C202.3,72.5,203.8,73.6,203.3,75.5z M201.7,73.4c-0.1,0-1.1,0-1.1,0h-2l-0.7,3.7
			h1l0.3-1.6h0.7l0.7,1.6h1.1l-0.8-1.6c0,0,1.1,0,1.3-0.6s0.2-0.7,0.1-1C202.2,73.6,202,73.5,201.7,73.4L201.7,73.4z M201.4,74.5
			c-0.1,0.3-0.4,0.4-0.6,0.5h-1.5l0.2-1h1.5C201,74,201.6,74.1,201.4,74.5z"/>
	</g>
</g>
<rect x="19" y="64" class="st1" width="191" height="39"/>
</svg>
